<svg id="Layer_2" data-name="Layer 2" xmlns="http://www.w3.org/2000/svg" viewBox="0 0 200 50"><defs><style>.cls-1{fill:none;}.cls-2{font-size:7.58px;fill:#231f20;font-family:Helvetica;letter-spacing:-0.08em;}.cls-3{letter-spacing:-0.1em;}.cls-4{letter-spacing:-0.08em;}.cls-5{letter-spacing:-0.15em;}.cls-6{letter-spacing:-0.08em;}.cls-7{fill:#ec1c24;}</style></defs><title>Inspir3d_logo</title><rect class="cls-1" width="200" height="50"/><text id="CAPS" class="cls-2" transform="translate(13.92 45.33)">PRODUC<tspan class="cls-3" x="29.16" y="0">T</tspan><tspan class="cls-4" x="33.05" y="0" xml:space="preserve"> DESIGN   +   RESEARCH   +   VISUALIS</tspan><tspan class="cls-5" x="151.87" y="0">A</tspan><tspan class="cls-6" x="155.75" y="0">TION</tspan></text><g id="Inspir3d"><path class="cls-7" d="M140,4.74v3h13.26a2.26,2.26,0,0,1,2.2,2.49V15.7a1.84,1.84,0,0,1-1.78,2.07h-13V21h13a1.84,1.84,0,0,1,1.78,2.08V28.7a2.26,2.26,0,0,1-2.2,2.49H140v3.1h13.35c3.41,0,5.39-1.69,5.39-5.61v-6.4a3.29,3.29,0,0,0-1.18-2.53l-.49-.42.5-.44a3.31,3.31,0,0,0,1.17-2.52V10.26c0-3.91-2-5.52-5.39-5.52Z" transform="translate(0 0)"/><path d="M14.62,4.68H17.9V34.29H14.62Z" transform="translate(0 0)"/><path d="M25.35,4.68h5.87L43,30.46h.94V4.68h3.28V34.29H41.43L29.52,8.5h-.9V34.29H25.35Z" transform="translate(0 0)"/><path d="M70.75,7.92s-5.58-.22-8,0c-3.81.35-6.17.8-6.17,4,0,3.87,1.92,4.47,6.9,5.75,5.45,1.4,8.08,2.81,8.08,8,0,6.38-3.13,7.78-9,8.44a64.12,64.12,0,0,1-9.11-.09v-3a69.49,69.49,0,0,0,8.71,0c3.81-.43,6.09-1.1,6.09-5.18,0-3.32-1.61-4.13-6.21-5.19C55.91,19,53.22,17.78,53.22,12c0-5.54,3.57-6.74,9.21-7.25a63.33,63.33,0,0,1,8.34.09Z" transform="translate(0 0)"/><path d="M80.85,21V34.29H77.57V4.68H88.34c6.42,0,9.4,2,9.4,8.39s-3,7.94-9.4,7.94Zm7.44-3.15c4.3,0,6.09-.4,6.09-4.79s-1.79-5.25-6.09-5.25H80.85v10Z" transform="translate(0 0)"/><path d="M103.15,4.68h3.27V34.29h-3.27Z" transform="translate(0 0)"/><path d="M124.68,20.92h-7.53V34.29h-3.28V4.68h10.9c6.34,0,9.4,1.54,9.4,7.92,0,4.56-1.61,6.32-5.4,7.47l5.66,14.22h-3.62l-5.32-13.37Zm.09-13.14h-7.62v10h7.66c4.51,0,6-1.42,6-5.21C130.81,8.52,128.9,7.78,124.77,7.78Z" transform="translate(0 0)"/><path d="M164,34.29V4.67h10.51c8.51,0,10.9,6,10.9,14.34s-2.26,15.28-10.9,15.28ZM174.48,7.78H167.2V31.19h7.28c6.09,0,7.49-5.92,7.49-12.18S180.57,7.78,174.48,7.78Z" transform="translate(0 0)"/></g></svg>