<svg id="Layer_2" data-name="Layer 2" xmlns="http://www.w3.org/2000/svg" viewBox="0 0 96 16.62"><defs><style>.cls-1{fill:none;}.cls-2{fill:#ec1c24;}</style></defs><title>Inspir3d_cropped</title><g id="_100x25" data-name="100x25"><rect class="cls-1" x="-2" y="-4.2" width="100" height="25"/><g id="Inspir3d"><path class="cls-2" d="M70.5,0V1.71H78a1.27,1.27,0,0,1,1.24,1.4V6.16a1,1,0,0,1-1,1.17H70.87V9.12h7.32a1,1,0,0,1,1,1.17v3.18A1.27,1.27,0,0,1,78,14.87H70.5v1.75H78c1.91,0,3-1,3-3.16V9.86a1.84,1.84,0,0,0-.66-1.42l-.28-.24L80.38,8A1.88,1.88,0,0,0,81,6.54V3.1C81,.9,79.9,0,78,0Z"/><path d="M0,0H1.84V16.62H0Z"/><path d="M6,0h3.3l6.6,14.5h.53V0H18.3V16.62H15.07L8.37,2.12h-.5v14.5H6Z"/><path d="M31.55,1.79s-3.13-.13-4.51,0c-2.15.2-3.47.45-3.47,2.27,0,2.17,1.08,2.51,3.87,3.23C30.51,8.07,32,8.86,32,11.81c0,3.59-1.76,4.37-5.07,4.74a35.79,35.79,0,0,1-5.12-.05V14.79a39.35,39.35,0,0,0,4.9,0c2.14-.24,3.42-.61,3.42-2.91,0-1.87-.9-2.32-3.49-2.92C23.21,8,21.7,7.33,21.7,4.1S23.71.31,26.88,0a35.43,35.43,0,0,1,4.69.05Z"/><path d="M37.23,9.15v7.47H35.39V0h6c3.61,0,5.29,1.11,5.29,4.73s-1.68,4.46-5.29,4.46Zm4.19-1.77c2.41,0,3.42-.23,3.42-2.69s-1-3-3.42-3H37.23V7.38Z"/><path d="M49.77,0h1.84V16.62H49.77Z"/><path d="M61.88,9.09H57.64v7.53H55.8V0h6.12c3.57,0,5.29.87,5.29,4.46,0,2.56-.91,3.55-3,4.2l3.19,8h-2l-3-7.53Zm0-7.38H57.64V7.35H62c2.53,0,3.37-.8,3.37-2.93C65.32,2.13,64.25,1.71,61.92,1.71Z"/><path d="M84,16.62V0h5.91C94.66,0,96,3.31,96,8s-1.27,8.59-6.13,8.59ZM89.87,1.71H85.78V14.87h4.09c3.43,0,4.22-3.33,4.22-6.84S93.3,1.71,89.87,1.71Z"/></g></g></svg>